<mxfile host="app.diagrams.net" modified="2020-04-14T17:34:51.673Z" agent="5.0 (Windows NT 6.1; Win64; x64) AppleWebKit/537.36 (KHTML, like Gecko) Chrome/79.0.3945.79 Safari/537.36" etag="SRmZKEYVUZEWt4TJKIaF" version="12.9.12" type="github">
  <diagram id="prtHgNgQTEPvFCAcTncT" name="Page-1">
    <mxGraphModel dx="868" dy="449" grid="1" gridSize="10" guides="1" tooltips="1" connect="1" arrows="1" fold="1" page="1" pageScale="1" pageWidth="1169" pageHeight="827" math="0" shadow="0">
      <root>
        <mxCell id="0" />
        <mxCell id="1" parent="0" />
        <mxCell id="dNxyNK7c78bLwvsdeMH5-19" value="PB Manual Posting" style="swimlane;html=1;childLayout=stackLayout;resizeParent=1;resizeParentMax=0;horizontal=0;startSize=20;horizontalStack=0;" parent="1" vertex="1">
          <mxGeometry x="10" y="10" width="1150" height="390" as="geometry" />
        </mxCell>
        <mxCell id="dNxyNK7c78bLwvsdeMH5-21" value="Ops Team" style="swimlane;html=1;startSize=20;horizontal=0;" parent="dNxyNK7c78bLwvsdeMH5-19" vertex="1">
          <mxGeometry x="20" width="1130" height="190" as="geometry" />
        </mxCell>
        <mxCell id="g2BHDE9syG1OolfzObvk-2" style="edgeStyle=orthogonalEdgeStyle;rounded=0;orthogonalLoop=1;jettySize=auto;html=1;exitX=1;exitY=0.5;exitDx=0;exitDy=0;exitPerimeter=0;entryX=0;entryY=0.5;entryDx=0;entryDy=0;fontSize=11;" edge="1" parent="dNxyNK7c78bLwvsdeMH5-21" source="8vlzeIa9GTS2jfRW9FDT-37" target="8vlzeIa9GTS2jfRW9FDT-18">
          <mxGeometry relative="1" as="geometry" />
        </mxCell>
        <mxCell id="g2BHDE9syG1OolfzObvk-5" value="" style="edgeStyle=orthogonalEdgeStyle;rounded=0;orthogonalLoop=1;jettySize=auto;html=1;fontSize=11;" edge="1" parent="dNxyNK7c78bLwvsdeMH5-21" source="8vlzeIa9GTS2jfRW9FDT-18" target="g2BHDE9syG1OolfzObvk-3">
          <mxGeometry relative="1" as="geometry" />
        </mxCell>
        <mxCell id="g2BHDE9syG1OolfzObvk-19" style="edgeStyle=orthogonalEdgeStyle;rounded=0;orthogonalLoop=1;jettySize=auto;html=1;exitX=1;exitY=0.5;exitDx=0;exitDy=0;entryX=0;entryY=0.5;entryDx=0;entryDy=0;entryPerimeter=0;fontSize=11;" edge="1" parent="dNxyNK7c78bLwvsdeMH5-21" source="g2BHDE9syG1OolfzObvk-15" target="8vlzeIa9GTS2jfRW9FDT-58">
          <mxGeometry relative="1" as="geometry" />
        </mxCell>
        <mxCell id="g2BHDE9syG1OolfzObvk-15" value="Review completed Posting" style="html=1;whiteSpace=wrap;rounded=1;dropTarget=0;" vertex="1" parent="dNxyNK7c78bLwvsdeMH5-21">
          <mxGeometry x="580" y="55" width="120" height="80" as="geometry" />
        </mxCell>
        <mxCell id="g2BHDE9syG1OolfzObvk-16" value="" style="html=1;shape=plus;outlineConnect=0;" vertex="1" parent="g2BHDE9syG1OolfzObvk-15">
          <mxGeometry x="0.5" y="1" width="14" height="14" relative="1" as="geometry">
            <mxPoint x="-7" y="-14" as="offset" />
          </mxGeometry>
        </mxCell>
        <mxCell id="g2BHDE9syG1OolfzObvk-6" value="Email and Fax completed template" style="html=1;whiteSpace=wrap;rounded=1;dropTarget=0;" vertex="1" parent="dNxyNK7c78bLwvsdeMH5-21">
          <mxGeometry x="420" y="55" width="120" height="80" as="geometry" />
        </mxCell>
        <mxCell id="g2BHDE9syG1OolfzObvk-7" value="" style="html=1;shape=plus;outlineConnect=0;" vertex="1" parent="g2BHDE9syG1OolfzObvk-6">
          <mxGeometry x="0.5" y="1" width="14" height="14" relative="1" as="geometry">
            <mxPoint x="-7" y="-14" as="offset" />
          </mxGeometry>
        </mxCell>
        <mxCell id="8vlzeIa9GTS2jfRW9FDT-18" value="Prepare appropriate template" style="html=1;whiteSpace=wrap;rounded=1;dropTarget=0;" parent="dNxyNK7c78bLwvsdeMH5-21" vertex="1">
          <mxGeometry x="90" y="55" width="120" height="80" as="geometry" />
        </mxCell>
        <mxCell id="8vlzeIa9GTS2jfRW9FDT-19" value="" style="html=1;shape=plus;outlineConnect=0;" parent="8vlzeIa9GTS2jfRW9FDT-18" vertex="1">
          <mxGeometry x="0.5" y="1" width="14" height="14" relative="1" as="geometry">
            <mxPoint x="-7" y="-14" as="offset" />
          </mxGeometry>
        </mxCell>
        <mxCell id="8vlzeIa9GTS2jfRW9FDT-37" value="" style="strokeWidth=2;html=1;shape=mxgraph.flowchart.start_2;whiteSpace=wrap;" parent="dNxyNK7c78bLwvsdeMH5-21" vertex="1">
          <mxGeometry x="40" y="85" width="20" height="20" as="geometry" />
        </mxCell>
        <mxCell id="g2BHDE9syG1OolfzObvk-8" value="" style="edgeStyle=orthogonalEdgeStyle;rounded=0;orthogonalLoop=1;jettySize=auto;html=1;fontSize=11;" edge="1" parent="dNxyNK7c78bLwvsdeMH5-21" source="g2BHDE9syG1OolfzObvk-3" target="g2BHDE9syG1OolfzObvk-6">
          <mxGeometry relative="1" as="geometry" />
        </mxCell>
        <mxCell id="g2BHDE9syG1OolfzObvk-3" value="Perform QA and sign-off template" style="html=1;whiteSpace=wrap;rounded=1;dropTarget=0;" vertex="1" parent="dNxyNK7c78bLwvsdeMH5-21">
          <mxGeometry x="260" y="55" width="120" height="80" as="geometry" />
        </mxCell>
        <mxCell id="g2BHDE9syG1OolfzObvk-4" value="" style="html=1;shape=plus;outlineConnect=0;" vertex="1" parent="g2BHDE9syG1OolfzObvk-3">
          <mxGeometry x="0.5" y="1" width="14" height="14" relative="1" as="geometry">
            <mxPoint x="-7" y="-14" as="offset" />
          </mxGeometry>
        </mxCell>
        <mxCell id="8vlzeIa9GTS2jfRW9FDT-58" value="" style="strokeWidth=2;html=1;shape=mxgraph.flowchart.start_2;whiteSpace=wrap;" parent="dNxyNK7c78bLwvsdeMH5-21" vertex="1">
          <mxGeometry x="740" y="85" width="20" height="20" as="geometry" />
        </mxCell>
        <mxCell id="dNxyNK7c78bLwvsdeMH5-22" value="FIS" style="swimlane;html=1;startSize=20;horizontal=0;" parent="dNxyNK7c78bLwvsdeMH5-19" vertex="1">
          <mxGeometry x="20" y="190" width="1130" height="200" as="geometry" />
        </mxCell>
        <mxCell id="g2BHDE9syG1OolfzObvk-14" value="" style="edgeStyle=orthogonalEdgeStyle;rounded=0;orthogonalLoop=1;jettySize=auto;html=1;fontSize=11;" edge="1" parent="dNxyNK7c78bLwvsdeMH5-22" source="g2BHDE9syG1OolfzObvk-9" target="g2BHDE9syG1OolfzObvk-12">
          <mxGeometry relative="1" as="geometry" />
        </mxCell>
        <mxCell id="g2BHDE9syG1OolfzObvk-12" value="Process request/update and send completion email" style="html=1;whiteSpace=wrap;rounded=1;dropTarget=0;" vertex="1" parent="dNxyNK7c78bLwvsdeMH5-22">
          <mxGeometry x="580" y="40" width="120" height="80" as="geometry" />
        </mxCell>
        <mxCell id="g2BHDE9syG1OolfzObvk-13" value="" style="html=1;shape=plus;outlineConnect=0;" vertex="1" parent="g2BHDE9syG1OolfzObvk-12">
          <mxGeometry x="0.5" y="1" width="14" height="14" relative="1" as="geometry">
            <mxPoint x="-7" y="-14" as="offset" />
          </mxGeometry>
        </mxCell>
        <mxCell id="g2BHDE9syG1OolfzObvk-9" value="Receive completed template" style="html=1;whiteSpace=wrap;rounded=1;dropTarget=0;" vertex="1" parent="dNxyNK7c78bLwvsdeMH5-22">
          <mxGeometry x="420" y="40" width="120" height="80" as="geometry" />
        </mxCell>
        <mxCell id="g2BHDE9syG1OolfzObvk-10" value="" style="html=1;shape=plus;outlineConnect=0;" vertex="1" parent="g2BHDE9syG1OolfzObvk-9">
          <mxGeometry x="0.5" y="1" width="14" height="14" relative="1" as="geometry">
            <mxPoint x="-7" y="-14" as="offset" />
          </mxGeometry>
        </mxCell>
        <mxCell id="g2BHDE9syG1OolfzObvk-11" value="" style="edgeStyle=orthogonalEdgeStyle;rounded=0;orthogonalLoop=1;jettySize=auto;html=1;fontSize=11;" edge="1" parent="dNxyNK7c78bLwvsdeMH5-19" source="g2BHDE9syG1OolfzObvk-7" target="g2BHDE9syG1OolfzObvk-9">
          <mxGeometry relative="1" as="geometry" />
        </mxCell>
        <mxCell id="g2BHDE9syG1OolfzObvk-17" value="" style="edgeStyle=orthogonalEdgeStyle;rounded=0;orthogonalLoop=1;jettySize=auto;html=1;fontSize=11;" edge="1" parent="dNxyNK7c78bLwvsdeMH5-19" source="g2BHDE9syG1OolfzObvk-12" target="g2BHDE9syG1OolfzObvk-15">
          <mxGeometry relative="1" as="geometry" />
        </mxCell>
      </root>
    </mxGraphModel>
  </diagram>
</mxfile>
